HIERARCHY
ROOT Hips
{
	OFFSET 0.000000 0.000000 0.000000
	CHANNELS 6 Xposition Yposition Zposition Zrotation Yrotation Xrotation 
	JOINT LHipJoint
	{
		OFFSET 0.000000 0.000000 0.000000
		CHANNELS 3 Zrotation Yrotation Xrotation
		JOINT LeftUpLeg
		{
			OFFSET 1.363060 -1.794630 0.839290
			CHANNELS 3 Zrotation Yrotation Xrotation
			JOINT LeftLeg
			{
				OFFSET 2.448110 -6.726130 0.000000
				CHANNELS 3 Zrotation Yrotation Xrotation
				JOINT LeftFoot
				{
					OFFSET 2.562200 -7.039590 0.000000
					CHANNELS 3 Zrotation Yrotation Xrotation
					JOINT LeftToeBase
					{
						OFFSET 0.157640 -0.433110 2.322550
						CHANNELS 3 Zrotation Yrotation Xrotation
						End Site
						{
							OFFSET 0.000000 0.000000 0.000000
						}
					}
				}
			}
		}
	}
	JOINT RHipJoint
	{
		OFFSET 0.000000 0.000000 0.000000
		CHANNELS 3 Zrotation Yrotation Xrotation
		JOINT RightUpLeg
		{
			OFFSET -1.305520 -1.794630 0.839290
			CHANNELS 3 Zrotation Yrotation Xrotation
			JOINT RightLeg
			{
				OFFSET -2.542530 -6.985550 0.000000
				CHANNELS 3 Zrotation Yrotation Xrotation
				JOINT RightFoot
				{
					OFFSET -2.568260 -7.056230 0.000000
					CHANNELS 3 Zrotation Yrotation Xrotation
					JOINT RightToeBase
					{
						OFFSET -0.164730 -0.452590 2.363150
						CHANNELS 3 Zrotation Yrotation Xrotation
						End Site
						{
							OFFSET 0.000000 0.000000 0.000000
						}
					}
				}
			}
		}
	}
}
MOTION
Frames: 11
Frame Time: 0.008333
4.651713 20.819824 0.908166 22.834693 -86.247407 2.727278 -11.601188 3.360020 4.130136 -6.103312 1.303509 -28.146250 0.496902 0.949353 41.110793 2.556966 8.162182 38.589788 4.770600 0.000000 -65.695400 11.062593 -3.216049 1.553857 6.378592 -10.744142 -23.447523 0.325141 -1.566068 28.620098 -0.561059 2.588703 30.533971 1.735000 0.000001 -82.589301
4.431935 20.951285 0.895841 21.867220 -86.096024 3.757338 -11.573403 3.205217 3.955487 -6.514265 1.608186 -29.342141 0.444626 1.008326 41.068605 2.520181 7.989951 38.531505 4.669900 -0.000001 -65.792900 11.005306 -3.080003 1.386354 6.662303 -11.102852 -24.264344 0.470132 -1.564568 27.772907 -0.491519 2.326711 29.774702 1.499000 0.000000 -82.520400
4.210731 21.072244 0.884097 21.055719 -85.950580 4.695455 -11.536599 3.057906 3.812101 -6.948876 1.825178 -30.535720 0.392983 1.055621 40.696681 2.475371 7.917716 38.310427 4.633100 -0.000001 -65.617500 10.943114 -2.949282 1.248022 6.956204 -11.408062 -25.138777 0.637063 -1.552201 26.777392 -0.413336 2.101357 28.980237 1.282300 -0.000000 -82.129000
3.988016 21.181689 0.872775 20.419123 -85.816468 5.518018 -11.490170 2.919210 3.696059 -7.409390 1.951233 -31.712047 0.340736 1.092451 40.024380 2.423237 7.963245 37.900937 4.670900 -0.000000 -65.471000 10.876366 -2.822278 1.143248 7.252323 -11.627260 -26.060522 0.821825 -1.527584 25.659798 -0.331381 1.881799 28.153936 1.067300 -0.000000 -81.849599
3.764224 21.278961 0.861763 19.951506 -85.695717 6.214257 -11.434379 2.790554 3.599237 -7.895271 1.996619 -32.854282 0.285021 1.122012 39.093859 2.361907 8.108659 37.266612 4.766200 0.000000 -65.186000 10.805617 -2.696836 1.070134 7.538982 -11.749555 -27.014703 1.021114 -1.491194 24.464550 -0.247171 1.670795 27.270098 0.856200 -0.000000 -81.492900
3.539626 21.363387 0.850965 19.629533 -85.589363 6.793147 -11.370120 2.671893 3.514511 -8.401411 1.970445 -33.942014 0.221790 1.145220 37.936672 2.291971 8.335425 36.418806 4.904600 0.000000 -64.822601 10.731243 -2.570791 1.024423 7.806902 -11.773679 -27.980941 1.230570 -1.442450 23.215638 -0.164505 1.461641 26.341000 0.647500 0.000000 -81.128900
3.314434 21.434932 0.840327 19.419853 -85.497253 7.274413 -11.298731 2.562310 3.435664 -8.919814 1.885388 -34.958948 0.146374 1.161890 36.581945 2.214619 8.614051 35.392660 5.065700 -0.000000 -64.402500 10.653743 -2.442188 0.999691 8.049446 -11.710673 -28.940873 1.445685 -1.381109 21.931774 -0.086660 1.254429 25.392024 0.444000 0.000000 -80.785900
3.088930 21.493357 0.829797 19.277312 -85.418507 7.690831 -11.221897 2.459972 3.358322 -9.441298 1.755867 -35.895288 0.054497 1.170620 35.054941 2.131893 8.911190 34.248705 5.228800 -0.000000 -63.933900 10.573474 -2.309689 0.988457 8.265728 -11.580268 -29.881560 1.662146 -1.307551 20.626756 -0.016045 1.053329 24.461373 0.250700 -0.000000 -80.483300
2.863256 21.539139 0.819407 19.150534 -85.352759 8.086187 -11.141594 2.362520 3.280476 -9.956653 1.596529 -36.751443 -0.056721 1.169297 33.378705 2.046144 9.193836 33.063561 5.376700 -0.000001 -63.426700 10.490690 -2.172757 0.983746 8.460361 -11.405948 -30.799685 1.876338 -1.223054 19.313134 0.046401 0.866293 23.592595 0.073800 0.000000 -80.235300
2.637445 21.572618 0.809210 18.990450 -85.300261 8.508224 -11.059947 2.267709 3.202462 -10.457819 1.420430 -37.536338 -0.188141 1.155499 31.572315 1.959799 9.436039 31.923938 5.500200 0.000000 -62.970899 10.405663 -2.031810 0.980070 8.643058 -11.210500 -31.701266 2.085782 -1.129754 18.002654 0.101411 0.704266 22.829889 -0.080400 0.000001 -80.068500
2.411401 21.594041 0.799214 18.752668 -85.262519 9.003968 -10.979223 2.173851 3.125688 -10.938988 1.240557 -38.267692 -0.338956 1.127742 29.655470 1.873727 9.612609 30.907757 5.591700 -0.000000 -62.504600 10.318527 -1.887943 0.974031 8.826512 -11.011887 -32.601119 2.289265 -1.030711 16.709879 0.151387 0.581254 22.210260 -0.205200 0.000001 -79.965900
